<svg width="16" height="16" viewBox="0 0 16 16" fill="none" xmlns="http://www.w3.org/2000/svg">
<path d="M14.3712 11.92H8.00004L3.10083 15.3488V11.92H1.63043C0.817634 11.92 0.160034 11.2608 0.160034 10.4512V2.12001C0.160034 1.30721 0.817634 0.651215 1.62883 0.651215H14.3696C15.1824 0.651215 15.84 1.30881 15.84 2.12001V10.4512C15.84 11.2608 15.1808 11.92 14.3712 11.92ZM14.8608 2.36481C14.8608 1.96001 14.5312 1.63041 14.1264 1.63041H1.87523C1.47043 1.63041 1.14083 1.96001 1.14083 2.36481V10.2048C1.14083 10.6112 1.47043 10.9392 1.87523 10.9392H4.08003V13.3904L7.50884 10.9392H14.1232C14.528 10.9392 14.8576 10.6112 14.8576 10.2048L14.8608 2.36481Z" fill="#A7A9AC"/>
</svg>
