<svg width="26" height="27" viewBox="0 0 26 27" fill="none" xmlns="http://www.w3.org/2000/svg">
<path d="M6.63601 22.2419L8.99333 3.74829C9.13299 2.65259 10.1346 1.87658 11.2304 2.01503L22.413 3.42784C23.5088 3.56629 24.284 4.56677 24.1443 5.66247L21.787 24.1561C21.6473 25.2518 20.6458 26.0278 19.5499 25.8894L8.36735 24.4766C7.27149 24.3381 6.49635 23.3377 6.63601 22.2419Z" stroke="#4BBC66"/>
<path d="M7.55702 16.1937L11.9653 14.0632L14.6906 17.4932" stroke="#4BBC66"/>
<path d="M14.2258 16.5083L19.9307 13.2539L22.5473 18.0241" stroke="#4BBC66"/>
<path d="M7.92768 2.76763L6.01139 2.58212C4.81958 2.46675 3.79328 3.4173 3.81724 4.61433L4.15845 21.6571C4.17802 22.6346 4.92618 23.4423 5.89948 23.5365V23.5365" stroke="#4BBC66"/>
<rect width="14.942" height="7.99962" rx="2" transform="matrix(0.993309 0.115487 -0.116787 0.993157 7.58252 16.104)" fill="#4BBC66"/>
<rect width="4.99762" height="5.23452" rx="2" transform="matrix(0.857402 -0.514647 0.505883 0.862602 8.01685 16.3826)" fill="#4BBC66"/>
<rect width="7.11089" height="6.20528" rx="2" transform="matrix(0.857402 -0.514647 0.505883 0.862602 13.7577 16.9583)" fill="#4BBC66"/>
<rect x="11.9097" y="5.36203" width="2.41699" height="2.442" rx="1.2085" transform="rotate(10.3237 11.9097 5.36203)" fill="#4BBC66"/>
</svg>
