<svg width="22" height="18" viewBox="0 0 22 18" fill="none" xmlns="http://www.w3.org/2000/svg">
<path fill-rule="evenodd" clip-rule="evenodd" d="M7 0C4.79272 0 3 1.79272 3 4C3 6.20728 4.79272 8 7 8C9.20728 8 11 6.20728 11 4C11 1.79272 9.20728 0 7 0Z" fill="#2D8EF3"/>
<path fill-rule="evenodd" clip-rule="evenodd" d="M13.4 17.0427H1.39967C1.24077 17.0427 1.08769 16.9681 0.975588 16.8349C0.862686 16.7022 0.799805 16.5213 0.799805 16.3335V14.9154C0.799805 12.1739 2.68014 9.95166 4.99967 9.95166H9.79981C12.1193 9.95166 13.9997 12.1739 13.9997 14.9154V16.3335C13.9997 16.5213 13.9368 16.7022 13.8239 16.8349C13.7118 16.9681 13.5587 17.0427 13.3998 17.0427H13.4Z" fill="#2D8EF3"/>
<path fill-rule="evenodd" clip-rule="evenodd" d="M15.2569 17H21.1748C21.6303 17 22 16.6864 22 16.2999V13.4999C22 11.5672 20.1525 10 17.8744 10H14.5737C14.0167 10 13.4854 10.0937 13 10.2632C14.4748 11.4154 15.3989 13.0661 15.3989 14.9V16.2999C15.3989 16.5406 15.35 16.7773 15.2569 17Z" fill="#61D7C7"/>
<rect x="13" y="1" width="6" height="6.77576" rx="3" fill="#89E1D4"/>
</svg>
