<svg width="27" height="27" viewBox="0 0 27 27" fill="none" xmlns="http://www.w3.org/2000/svg">
<path d="M4.5 18.45C4.5 19.3451 4.85558 20.2035 5.48855 20.8365C6.12151 21.4694 6.97987 21.825 7.875 21.825H18.675C19.5701 21.825 20.4285 21.4694 21.0615 20.8365C21.6944 20.2035 22.05 19.3451 22.05 18.45V11.025H4.5V18.45ZM10.575 14.272C10.5768 13.7903 10.834 13.3456 11.2508 13.104C11.6674 12.8623 12.181 12.8599 12.6 13.0975L16.137 15.1427C16.5533 15.3842 16.8096 15.8291 16.8096 16.3103C16.8096 16.7917 16.5533 17.2367 16.137 17.4782L12.6 19.5233C12.3951 19.6427 12.1621 19.7056 11.925 19.7056C11.6879 19.7056 11.4549 19.6427 11.25 19.5233C11.0436 19.4066 10.8721 19.2368 10.7534 19.0314C10.6348 18.826 10.5732 18.5928 10.575 18.3556V14.272Z" fill="#B3B6BB"/>
<path d="M16.7302 9.67501L12.9502 5.62501H9.27954L13.0595 9.67501H16.7302Z" fill="#B3B6BB"/>
<path d="M7.57457 5.65544C6.73714 5.72867 5.95742 6.11244 5.38849 6.73124C4.81956 7.35019 4.5027 8.15942 4.5 9.00001V9.67501H11.3302L7.57457 5.65544Z" fill="#B3B6BB"/>
<path d="M18.6749 5.62501H14.6797L18.4597 9.67501H22.05V9.00001C22.05 8.10488 21.6944 7.24651 21.0614 6.61355C20.4285 5.9806 19.5701 5.62501 18.675 5.62501H18.6749Z" fill="#B3B6BB"/>
</svg>
