<svg width="36" height="30" viewBox="0 0 36 30" fill="none" xmlns="http://www.w3.org/2000/svg">
<path d="M17 25.3894V8.4075C17 7.92745 16.6582 7.51358 16.1852 7.43123C13.0336 6.88239 10.963 6.87041 7.81054 7.42892C7.33949 7.51237 7 7.92541 7 8.4038V25.0536C7 25.5345 7.34307 25.9489 7.81699 26.0301C10.7011 26.5242 12.4452 26.5122 14.9835 25.9643C15.2173 25.9139 15.4627 25.9597 15.6599 26.095C16.2278 26.4848 17 26.0782 17 25.3894Z" fill="#358CFC"/>
<path d="M19.7273 27V7.50806C23.7859 6.82602 25.9734 6.83528 29.7273 7.50806V26.0718C26.5543 26.4691 24.7752 26.5631 21.6023 26.0718L19.7273 27Z" fill="#358CFC"/>
</svg>
