<svg width="34" height="33" viewBox="0 0 34 33" fill="none" xmlns="http://www.w3.org/2000/svg">
<g clip-path="url(#clip0_72_658)">
<path d="M24.6503 17.3998L24.3014 15.5064C24.2645 15.3103 24.1478 15.1301 23.9811 15.0143C22.5781 14.0851 21.5973 12.6038 21.2924 10.9637L21.0715 9.75978C20.6667 7.57571 18.9696 5.89699 16.8296 5.50069L16.714 4.87665C16.6178 4.37522 16.3241 3.91709 15.9131 3.63225C15.4918 3.33124 14.9699 3.22129 14.4487 3.3128C13.3869 3.51913 12.6871 4.53947 12.8883 5.59303L13.0058 6.23826C12.3883 6.61912 11.8591 7.12498 11.4523 7.72919C10.6495 8.8916 10.3475 10.3115 10.6054 11.7113L10.821 12.8793C11.1329 14.5488 10.7399 16.2939 9.73995 17.6732C9.62561 17.8335 9.57581 18.0436 9.61106 18.2463L9.9697 20.128C10.0223 20.404 10.2247 20.6324 10.4909 20.7094C10.6075 20.744 10.7324 20.7736 10.8572 20.8032C11.7635 21.0181 12.8715 21.1143 14.1023 21.073L14.1089 21.0746C14.5878 22.0969 15.5038 22.8274 16.5809 23.0827C17.0669 23.1979 17.5894 23.2178 18.1187 23.1212C19.7947 22.8109 21.0137 21.4142 21.1263 19.7691C22.4648 19.3026 23.5761 18.7403 24.3727 18.1314C24.5948 17.9554 24.6962 17.6742 24.6503 17.3998ZM14.709 4.78994C14.7743 4.77771 14.8349 4.78512 14.8941 4.79916C14.9466 4.8116 14.9977 4.83068 15.0521 4.86433C15.1397 4.93372 15.213 5.03424 15.2391 5.15843L15.2901 5.44103C15.2752 5.44447 15.2541 5.44626 15.2311 5.45477C15.1036 5.46619 14.9876 5.48715 14.865 5.50671C14.7637 5.52435 14.6674 5.54997 14.5645 5.57422C14.5074 5.58142 14.4618 5.5985 14.403 5.61226L14.3537 5.32309C14.3081 5.07645 14.4689 4.83709 14.709 4.78994ZM17.8501 21.6493C17.0595 21.7948 16.2932 21.516 15.7951 20.954C15.8377 20.9502 15.8802 20.9465 15.9242 20.936C16.1809 20.9067 16.4392 20.8707 16.6973 20.8348C16.7121 20.8313 16.7251 20.8344 16.7465 20.8325C17.0553 20.7877 17.3592 20.735 17.6647 20.6757C17.9555 20.6198 18.2396 20.5622 18.5253 20.4981C18.5988 20.4809 18.6788 20.4652 18.7457 20.4463C18.9809 20.3911 19.2093 20.3342 19.4394 20.2709C19.4606 20.2689 19.4835 20.2606 19.5047 20.2586C19.2466 20.9675 18.6343 21.5023 17.8501 21.6493Z" fill="#E4E6EB"/>
</g>
<defs>
<clipPath id="clip0_72_658">
<rect width="27" height="27" fill="white" transform="translate(7) rotate(13.3371)"/>
</clipPath>
</defs>
</svg>
